# xmcd
#
# Track frame offsets:
#	150
#	16550
#	30957
#	43175
#	56975
#	75500
#	85625
#	100925
#	108277
#	117800
#	128900
#	137450
#	149900
#
# Disc length: 2233 seconds
#
# Revision: 0
# Processed by: cddbd v1.5.2PL0 Copyright (c) Steve Scherf et al.
# Submitted via: audiograbber 1.83.01
#
DISCID=a108b70d
DTITLE=Elvis Presly - Gospel Songs
DYEAR=1900
DGENRE=
TTITLE0=Amazing Grace
TTITLE1=In The Garden
TTITLE2=Joshua fit the Battle
TTITLE3=How Great Thou Art
TTITLE4=Farther Along
TTITLE5=Milky White Way
TTITLE6=Peace in the Valley
TTITLE7=Bosom of Abraham
TTITLE8=I Believe
TTITLE9=Crying in the Chapel
TTITLE10=Where no Man Stands Alone
TTITLE11=It is No Secret
TTITLE12=I'm gonna Walk dem Golden Stairs
EXTD=
EXTT0=
EXTT1=
EXTT2=
EXTT3=
EXTT4=
EXTT5=
EXTT6=
EXTT7=
EXTT8=
EXTT9=
EXTT10=
EXTT11=
EXTT12=
PLAYORDER=
